<?xml version="1.0" encoding="UTF-8" standalone="no"?>
<svg width="149px" height="174px" viewBox="0 0 149 174" version="1.1" xmlns="http://www.w3.org/2000/svg" xmlns:xlink="http://www.w3.org/1999/xlink">
    <!-- Generator: Sketch 39.1 (31720) - http://www.bohemiancoding.com/sketch -->
    <title>Page 1</title>
    <desc>Created with Sketch.</desc>
    <defs></defs>
    <g id="Page-1" stroke="none" stroke-width="1" fill="none" fill-rule="evenodd">
        <g id="Desktop-HD" transform="translate(-970.000000, -1352.000000)" fill="#02B9F6">
            <path d="M1062.33606,1458.56082 L1065.10331,1456.96056 L1065.10331,1482.40887 L1072.59048,1478.08756 L1072.58471,1452.63925 L1075.35773,1451.03899 C1076.23008,1450.53637 1077.02733,1449.49071 1077.39129,1448.36417 C1077.7668,1447.23763 1077.63393,1446.2324 1077.07355,1445.78756 L1070.56271,1440.64591 C1069.70769,1439.97576 1067.99188,1440.96943 1067.13108,1442.62747 L1060.62025,1455.28518 C1060.05409,1456.38284 1059.93277,1457.53249 1060.29673,1458.23153 C1060.66646,1458.93634 1061.46371,1459.06344 1062.33606,1458.56082 L1062.33606,1458.56082 Z M1062.33606,1492.77884 L1097.28199,1472.60506 C1098.5183,1471.89447 1099.52352,1470.14977 1099.52352,1468.71704 C1099.52352,1467.28431 1098.5183,1466.70659 1097.28199,1467.42296 L1062.33606,1487.59096 C1061.09397,1488.30733 1060.08875,1490.05202 1060.08875,1491.48476 C1060.08875,1492.91749 1061.09397,1493.4952 1062.33606,1492.77884 L1062.33606,1492.77884 Z M1107.236,1477.28454 L1050.17517,1510.23158 L1050.17517,1440.36283 L1107.236,1407.41001 L1107.236,1477.28454 Z M1044.39803,1430.35104 L1022.26002,1417.572 L1079.33241,1384.62496 L1101.45886,1397.404 L1044.39803,1430.35104 Z M1038.62089,1510.23158 L981.554284,1477.28454 L981.554284,1407.41001 L1000.32999,1418.25371 L1000.32999,1432.50591 L1003.92338,1431.4487 L1008.91483,1437.41071 L1014.39156,1437.42226 L1018.23336,1442.73146 L1018.23336,1428.58901 L1038.62089,1440.36283 L1038.62089,1510.23158 Z M1044.39803,1364.45118 L1061.38283,1374.26077 L1004.31622,1407.20781 L987.331425,1397.404 L1044.39803,1364.45118 Z M1115.90172,1392.39522 L1047.2866,1352.77558 C1045.50147,1351.74147 1043.28882,1351.74147 1041.50946,1352.77558 L972.888571,1392.39522 C970.97056,1393.50443 970,1395.66508 970,1397.404 L970,1480.61795 C970,1482.68039 971.097657,1484.58685 972.888571,1485.62096 L1041.50946,1525.24059 C1043.1675,1526.20538 1045.47258,1526.29203 1047.2866,1525.24059 L1115.90172,1485.62096 C1117.69263,1484.58685 1118.79029,1482.68039 1118.79029,1480.61795 L1118.79029,1397.404 C1118.79029,1395.66508 1117.81973,1393.50443 1115.90172,1392.39522 L1115.90172,1392.39522 Z M1084.44518,1445.79334 L1087.21821,1444.19307 L1087.22398,1469.64138 L1094.70538,1465.32008 L1094.70538,1439.87755 L1097.47263,1438.27728 C1098.34498,1437.76889 1099.14223,1436.72901 1099.51196,1435.59669 C1099.87592,1434.47014 1099.7546,1433.46492 1099.18844,1433.02008 L1092.67761,1427.87842 C1091.82259,1427.20828 1090.101,1428.20194 1089.24598,1429.85998 L1082.72937,1442.5177 C1082.16898,1443.61536 1082.04189,1444.76501 1082.41162,1445.46982 C1082.78136,1446.16886 1083.57283,1446.29595 1084.44518,1445.79334 L1084.44518,1445.79334 Z" id="Page-1"></path>
        </g>
    </g>
</svg>