<?xml version="1.0" encoding="UTF-8" standalone="no"?>
<svg width="138px" height="138px" viewBox="0 0 138 138" version="1.1" xmlns="http://www.w3.org/2000/svg" xmlns:xlink="http://www.w3.org/1999/xlink">
    <!-- Generator: Sketch 39.1 (31720) - http://www.bohemiancoding.com/sketch -->
    <title>Page 1</title>
    <desc>Created with Sketch.</desc>
    <defs></defs>
    <g id="Page-1" stroke="none" stroke-width="1" fill="none" fill-rule="evenodd">
        <g id="Desktop-HD" transform="translate(-762.000000, -1370.000000)" fill="#02B9F6">
            <path d="M778.599867,1486.96556 C778.032216,1487.53321 777.680963,1488.32039 777.680963,1489.18284 C777.680963,1490.91716 779.085977,1492.31904 780.817155,1492.31904 C782.548334,1492.31904 783.953348,1490.91716 783.953348,1489.18284 C783.953348,1487.45167 782.548334,1486.04665 780.817155,1486.04665 C779.951566,1486.04665 779.167518,1486.39791 778.599867,1486.96556 M894.927522,1397.33631 L892.286848,1399.97698 L892.261758,1399.95189 L876.580796,1415.63286 L876.546297,1415.59836 C873.714316,1418.43034 869.803483,1420.17406 865.484946,1420.17406 C856.832191,1420.17406 849.819664,1413.1584 849.819664,1404.50565 C849.819664,1400.18711 851.56966,1396.28255 854.392233,1393.44743 L849.954521,1389.00972 C845.984101,1392.97387 843.515917,1398.44338 843.515917,1404.50565 C843.515917,1416.63957 853.351017,1426.47781 865.484946,1426.47781 C871.547207,1426.47781 877.016726,1424.00963 880.98401,1420.03607 L881.015372,1420.07057 L892.678872,1408.40393 C895.037289,1417.0755 893.917668,1425.39269 888.708452,1430.72422 L871.89846,1447.9325 C869.678036,1450.19997 866.42894,1451.55794 863.223751,1451.55794 C863.095168,1451.55481 852.479156,1450.83035 841.878825,1444.17848 L841.850599,1444.24121 C841.367625,1443.93386 840.825064,1443.70805 840.207234,1443.70805 C839.147201,1443.70805 838.25025,1444.27257 837.685735,1445.08798 L837.572832,1445.01898 L789.689444,1498.05513 C787.415705,1500.32574 784.279512,1501.72761 780.817155,1501.72761 C773.889306,1501.72761 768.272385,1496.11383 768.272385,1489.18284 C768.272385,1485.72049 769.677399,1482.5843 771.944867,1480.31369 L824.79912,1432.61848 L824.711307,1432.52439 C825.526717,1431.95987 826.094368,1431.05665 826.094368,1429.98721 C826.094368,1429.30666 825.834064,1428.71392 825.467129,1428.20272 L825.48281,1428.1839 C816.403533,1416.1221 816.083641,1407.15573 823.905305,1398.67546 L840.658846,1381.53303 C844.905251,1377.18941 850.456311,1376.27364 854.37028,1376.27364 L854.379688,1376.27364 C856.75065,1376.27364 859.190608,1376.62489 861.64311,1377.2584 L849.923159,1388.97522 L854.357735,1393.4098 L870.038698,1377.72883 L870.013608,1377.70374 L872.770322,1374.95017 C866.657882,1371.71989 860.307092,1370.00125 854.379688,1370.00125 L854.37028,1370.00125 C847.382843,1370.00125 840.994418,1372.30949 836.315219,1377.10473 L819.502091,1394.30361 C808.447012,1406.23682 811.369943,1418.45229 818.865444,1429.51051 L767.513427,1475.87912 C764.107521,1479.28502 762,1483.98931 762,1489.18284 C762,1499.57619 770.423813,1508 780.817155,1508 C786.013827,1508 790.718115,1505.89561 794.124021,1502.48971 L840.856426,1450.83348 C851.491255,1456.82675 861.624293,1457.83033 863.201798,1457.83033 C867.786912,1457.83033 872.6731,1456.01134 876.238951,1452.36708 L893.048943,1435.15879 C901.811465,1426.18928 902.068633,1411.09792 894.927522,1397.33631" id="Page-1"></path>
        </g>
    </g>
</svg>