<?xml version="1.0" encoding="UTF-8" standalone="no"?>
<svg width="83px" height="152px" viewBox="0 0 83 152" version="1.1" xmlns="http://www.w3.org/2000/svg" xmlns:xlink="http://www.w3.org/1999/xlink">
    <!-- Generator: Sketch 39.1 (31720) - http://www.bohemiancoding.com/sketch -->
    <title>Page 1</title>
    <desc>Created with Sketch.</desc>
    <defs>
        <polygon id="path-1" points="82.56344 151.998964 82.56344 0 0.00172 0 0.00172 151.998964 82.56344 151.998964"></polygon>
    </defs>
    <g id="Page-1" stroke="none" stroke-width="1" fill="none" fill-rule="evenodd">
        <g id="Desktop-HD" transform="translate(-529.000000, -1393.000000)">
            <g id="Page-1" transform="translate(529.000000, 1393.000000)">
                <mask id="mask-2" fill="white">
                    <use xlink:href="#path-1"></use>
                </mask>
                <g id="Clip-2"></g>
                <path d="M36.33844,131.247509 L41.26452,86.7426 L41.20948,86.7426 C41.22324,86.6078727 41.28172,86.4973273 41.28172,86.3626 C41.28172,84.4522364 39.74404,82.9080545 37.84172,82.9080545 L8.213,82.9080545 L33.44196,6.90805455 L60.587,6.90805455 L43.7138,57.6311455 L43.75508,57.6449636 C43.64156,57.9904182 43.5418,58.3427818 43.5418,58.7262364 C43.5418,60.6366 45.07948,62.1807818 46.9818,62.1807818 L73.37348,62.1807818 L36.33844,131.247509 Z M82.56516,58.7262364 C82.56516,56.8158727 81.02404,55.2716909 79.12516,55.2716909 L51.75652,55.2716909 L68.62972,4.54514545 L68.58844,4.53132727 C68.70196,4.19278182 68.80516,3.83696364 68.80516,3.45350909 C68.80516,1.5466 67.26404,-0.00103636364 65.36516,-0.00103636364 L30.96516,-0.00103636364 C29.44468,-0.00103636364 28.19596,1.00423636 27.73844,2.37223636 L27.69716,2.35841818 L0.17716,85.2675091 L0.21844,85.2847818 C0.10492,85.6267818 0.00172,85.9791455 0.00172,86.3626 C0.00172,88.2729636 1.54284,89.8171455 3.44172,89.8171455 L33.99924,89.8171455 L27.54236,148.160964 L27.5974,148.167873 C27.58364,148.299145 27.52172,148.413145 27.52172,148.544418 C27.52172,150.454782 29.06284,151.998964 30.96516,151.998964 C32.35148,151.998964 33.49012,151.1526 34.01988,149.960782 L34.08868,149.991873 L82.24868,60.1736909 L82.23148,60.1667818 C82.43444,59.7246 82.56516,59.2444182 82.56516,58.7262364 L82.56516,58.7262364 Z" id="Fill-1" fill="#02B9F6" mask="url(#mask-2)"></path>
            </g>
        </g>
    </g>
</svg>