<?xml version="1.0" encoding="UTF-8" standalone="no"?>
<svg width="116px" height="129px" viewBox="0 0 116 129" version="1.1" xmlns="http://www.w3.org/2000/svg" xmlns:xlink="http://www.w3.org/1999/xlink">
    <!-- Generator: Sketch 39.1 (31720) - http://www.bohemiancoding.com/sketch -->
    <title>Page 1</title>
    <desc>Created with Sketch.</desc>
    <defs></defs>
    <g id="Page-1" stroke="none" stroke-width="1" fill="none" fill-rule="evenodd" stroke-linecap="round" stroke-linejoin="round">
        <g id="Desktop-HD" transform="translate(-609.000000, -1590.000000)" stroke="#02B9F6" stroke-width="5.92000008">
            <g id="Page-1" transform="translate(612.000000, 1593.000000)">
                <path d="M54.9603833,122.874318 C22.5572167,108.792712 0.680383333,82.0765303 0.680383333,51.4310455 C0.680383333,35.7253788 0.864383333,19.9889242 0.864383333,4.26786364 C5.72121667,10.0059545 15.5038833,13.9275606 26.78155,13.9275606 C40.27105,13.9275606 51.62155,8.3164697 54.9603833,0.692621212 C58.30305,8.3164697 69.6497167,13.9275606 83.14305,13.9275606 C94.4168833,13.9275606 104.19955,10.0059545 109.056383,4.26786364 C109.056383,19.9889242 109.240383,35.7253788 109.240383,51.4310455 C109.240383,82.0765303 87.36355,108.792712 54.9603833,122.874318 L54.9603833,122.874318 Z" id="Stroke-1"></path>
                <polyline id="Stroke-3" points="32.1401667 58.4329788 53.1583333 82.8785545 82.8781667 37.2740091"></polyline>
            </g>
        </g>
    </g>
</svg>